<svg width="48" height="60" viewBox="0 0 48 60" fill="none" xmlns="http://www.w3.org/2000/svg">
<g filter="url(#filter0_f_3233_1497)">
<ellipse cx="24" cy="54" rx="4" ry="2" fill="#B8B8B8"/>
</g>
<path d="M24 2C19.7566 2 15.6871 3.65489 12.6866 6.60195C9.68603 9.54901 8 13.5459 8 17.7137C8 30.2845 24 46 24 46C24 46 40 30.2845 40 17.7137C40.0003 15.6499 39.5867 13.6091 38.7827 11.7023C37.9787 9.79563 36.8003 8.06125 35.3145 6.60195C33.8287 5.14266 32.064 3.98416 30.1226 3.19453C28.1813 2.4049 26.1012 1.99971 24 2ZM24 24C22.7345 24 21.4977 23.6334 20.4454 22.943C19.3931 22.2525 18.5729 21.2682 18.0885 20.1199C17.604 18.9717 17.4766 17.7082 17.7232 16.4891C17.9697 15.2699 18.5786 14.1499 19.4731 13.2707C20.3676 12.3915 21.5077 11.795 22.7488 11.552C23.9899 11.3089 25.2761 11.4292 26.4456 11.9043C27.615 12.3793 28.615 13.1873 29.3188 14.2203C30.0225 15.2534 30.3985 16.4664 30.3993 17.7094C30.3996 18.5351 30.2341 19.3527 29.9126 20.1156C29.5912 20.8786 29.1201 21.5726 28.5258 22.1566C27.9316 22.7407 27.2265 23.2025 26.4499 23.5188C25.6733 23.835 24.8407 23.9997 24 24Z" fill="#337566"/>
<defs>
<filter id="filter0_f_3233_1497" x="16" y="48" width="16" height="12" filterUnits="userSpaceOnUse" color-interpolation-filters="sRGB">
<feFlood flood-opacity="0" result="BackgroundImageFix"/>
<feBlend mode="normal" in="SourceGraphic" in2="BackgroundImageFix" result="shape"/>
<feGaussianBlur stdDeviation="2" result="effect1_foregroundBlur_3233_1497"/>
</filter>
</defs>
</svg>
