<svg width="15" height="14" viewBox="0 0 15 14" fill="none" xmlns="http://www.w3.org/2000/svg">
<path d="M14.4439 5.26471C14.5761 5.67647 14.4733 6 14.15 6.25L10.814 8.77941L12.0926 12.8971C12.2542 13.4706 11.828 14 11.299 14C11.1227 14 10.961 13.9412 10.814 13.8235L7.49282 11.2941L4.1716 13.8235C3.99354 13.9443 3.77645 13.9932 3.56386 13.9605C3.35126 13.9277 3.1589 13.8158 3.02534 13.6471C2.93942 13.5446 2.88307 13.4206 2.86235 13.2884C2.84164 13.1563 2.85734 13.0209 2.90778 12.8971L4.1716 8.80882L0.835687 6.25C0.527078 6 0.424208 5.67647 0.556469 5.26471C0.674035 4.91176 0.982644 4.67647 1.32064 4.67647H5.43543L6.71395 0.573529C6.81682 0.235294 7.12543 0 7.47813 0C7.84552 0 8.16882 0.25 8.27169 0.602941L9.55022 4.67647H13.665C14.0177 4.67647 14.3263 4.91176 14.4439 5.26471Z" fill="#337566"/>
</svg>
